<?xml version="1.0" encoding="UTF-8" standalone="no"?>
<svg
   version="1.1"
   width="595.27557"
   height="419.52759"
   id="svg530"
   viewBox="0 0 595.27557 419.52759"
   sodipodi:docname="sandflower_rovem_scenario.svg"
   inkscape:version="1.2.1 (9c6d41e410, 2022-07-14)"
   xmlns:inkscape="http://www.inkscape.org/namespaces/inkscape"
   xmlns:sodipodi="http://sodipodi.sourceforge.net/DTD/sodipodi-0.dtd"
   xmlns="http://www.w3.org/2000/svg"
   xmlns:svg="http://www.w3.org/2000/svg">
  <sodipodi:namedview
     id="namedview532"
     pagecolor="#ffffff"
     bordercolor="#000000"
     borderopacity="0.25"
     inkscape:showpageshadow="2"
     inkscape:pageopacity="0.0"
     inkscape:pagecheckerboard="0"
     inkscape:deskcolor="#d1d1d1"
     showgrid="false"
     inkscape:zoom="1.69812"
     inkscape:cx="217.29913"
     inkscape:cy="210.23249"
     inkscape:window-width="1920"
     inkscape:window-height="1009"
     inkscape:window-x="1912"
     inkscape:window-y="-8"
     inkscape:window-maximized="1"
     inkscape:current-layer="svg530" />
  <path
     d="m 545.6693,324.567 a 33.4646,9.9213 -180 1 1 -33.4646,-9.9213 33.4646,9.9213 -180 0 1 33.4646,9.9213 z"
     style="fill:#008000;fill-rule:evenodd"
     id="path268" />
  <path
     d="m 431.6665,324.567 a 33.4646,9.9213 -180 1 1 -33.4646,-9.9213 33.4646,9.9213 -180 0 1 33.4646,9.9213 z"
     style="fill:#008000;fill-rule:evenodd"
     id="path270" />
  <g
     id="Layer1000">
    <path
       d="M 280.6299,355.748 H 568.3465 V 114.8032 H 280.6299 Z"
       style="fill:none;stroke:#000000;stroke-width:0.75;stroke-linecap:round;stroke-linejoin:round;stroke-dasharray:4.5, 2.25, 4.5, 2.25"
       id="path272" />
  </g>
  <g
     id="Layer1001">
    <path
       d="m 344.0049,134.2126 -36.0128,7.1546 v 63.7115 h 70.8662 v -63.7045 z"
       style="fill:#ffffff;fill-rule:evenodd;stroke-width:0.75;stroke-linecap:round;stroke-linejoin:round"
       id="path279" />
    <path
       d="m 344.0049,134.2126 -36.0128,7.1546 v 63.7115 h 70.8662 v -63.7045 z"
       style="fill:none;stroke:#000000;stroke-width:0.75;stroke-linecap:round;stroke-linejoin:round;stroke-dasharray:none"
       id="path281" />
  </g>
  <path
     d="M 355.4774,182.379 H 366.816 V 171.0451 H 355.4774 Z"
     style="fill:#a5a5a5;fill-rule:evenodd;stroke-width:0.75;stroke-linecap:round;stroke-linejoin:round"
     id="path284" />
  <g
     id="Layer1002">
    <path
       d="m 353.7022,183.7957 v -20.299 h -1.8425 v 22.1415 h 14.9598 v -1.8425 z m -27.4542,6.6226 c -2.2557,0 -4.0897,1.8347 -4.0897,4.0894 0,2.2548 1.8347,4.088 4.0897,4.088 2.2563,0 4.0911,-1.8361 4.0911,-4.088 0,-2.2547 -1.8355,-4.0894 -4.0911,-4.0894 z m 28.8446,0 c -2.2571,0 -4.0904,1.8347 -4.0904,4.0894 0,2.2548 1.8369,4.088 4.0904,4.088 2.2557,0 4.0904,-1.8361 4.0904,-4.088 0,-2.2547 -1.8354,-4.0894 -4.0904,-4.0894 z m -5.5084,4.0901 c 0,-3.036 2.4704,-5.5054 5.5077,-5.5054 0.8171,0 1.5917,0.1842 2.2897,0.505 v -0.811 c 0,-0.6489 -0.5315,-1.1759 -1.1863,-1.1759 l -6.2157,-0.01 v -20.015 h -2.6383 v 0.007 h -0.1956 v 17.7915 h -22.264 c -0.5577,0 -1.0092,0.5312 -1.0092,1.1872 v 3.0665 c 0.7207,-0.3457 1.5237,-0.5461 2.3755,-0.5461 3.0373,0 5.5084,2.4693 5.5084,5.5054 0,0.3953 -0.0439,0.7792 -0.1233,1.1504 h 18.0744 c -0.0794,-0.3705 -0.1233,-0.7544 -0.1233,-1.1497 z m -8.1886,-16.0743 -11.8793,-0.0149 c -0.399,0 -0.7228,-0.3195 -0.7228,-0.7098 V 166.872 c 0,-0.3208 0.2905,-0.5808 0.6505,-0.5808 h 10.6959 c 0.3592,0 0.6796,0.2614 0.7143,0.5823 l 1.1891,10.8522 c 0.0432,0.3903 -0.248,0.7084 -0.6477,0.7084 z m 4.072,3.8323 -2.0927,-18.4212 c -0.0602,-0.537 -0.5358,-0.9691 -1.063,-0.9691 h -15.6628 c -0.5259,0 -0.9525,0.4307 -0.9539,0.9691 l 0.001,18.4212 c 0,0.6765 0.484,1.2283 1.0807,1.2283 h 17.7485 c 0.5974,0 1.0169,-0.5518 0.9418,-1.2283 z"
       style="fill:#ffffff;fill-rule:evenodd;stroke-width:0.75;stroke-linecap:round;stroke-linejoin:round"
       id="path286" />
    <path
       d="m 353.7022,183.7957 v -20.299 h -1.8425 v 22.1415 h 14.9598 v -1.8425 z m -27.4542,6.6226 c -2.2557,0 -4.0897,1.8347 -4.0897,4.0894 0,2.2548 1.8347,4.088 4.0897,4.088 2.2563,0 4.0911,-1.8361 4.0911,-4.088 0,-2.2547 -1.8355,-4.0894 -4.0911,-4.0894 z m 28.8446,0 c -2.2571,0 -4.0904,1.8347 -4.0904,4.0894 0,2.2548 1.8369,4.088 4.0904,4.088 2.2557,0 4.0904,-1.8361 4.0904,-4.088 0,-2.2547 -1.8354,-4.0894 -4.0904,-4.0894 z m -5.5084,4.0901 c 0,-3.036 2.4704,-5.5054 5.5077,-5.5054 0.8171,0 1.5917,0.1842 2.2897,0.505 v -0.811 c 0,-0.6489 -0.5315,-1.1759 -1.1863,-1.1759 l -6.2157,-0.01 v -20.015 h -2.6383 v 0.007 h -0.1956 v 17.7915 h -22.264 c -0.5577,0 -1.0092,0.5312 -1.0092,1.1872 v 3.0665 c 0.7207,-0.3457 1.5237,-0.5461 2.3755,-0.5461 3.0373,0 5.5084,2.4693 5.5084,5.5054 0,0.3953 -0.0439,0.7792 -0.1233,1.1504 h 18.0744 c -0.0794,-0.3705 -0.1233,-0.7544 -0.1233,-1.1497 z m -8.1886,-16.0743 -11.8793,-0.0149 c -0.399,0 -0.7228,-0.3195 -0.7228,-0.7098 V 166.872 c 0,-0.3208 0.2905,-0.5808 0.6505,-0.5808 h 10.6959 c 0.3592,0 0.6796,0.2614 0.7143,0.5823 l 1.1891,10.8522 c 0.0432,0.3903 -0.248,0.7084 -0.6477,0.7084 z m 4.072,3.8323 -2.0927,-18.4212 c -0.0602,-0.537 -0.5358,-0.9691 -1.063,-0.9691 h -15.6628 c -0.5259,0 -0.9525,0.4307 -0.9539,0.9691 l 0.001,18.4212 c 0,0.6765 0.484,1.2283 1.0807,1.2283 h 17.7485 c 0.5974,0 1.0169,-0.5518 0.9418,-1.2283 z"
       style="fill:none;stroke:#ffc000;stroke-width:0.75;stroke-linecap:round;stroke-linejoin:round;stroke-dasharray:none"
       id="path288" />
  </g>
  <text
     x="332.293"
     y="217.6143"
     id="text293"><tspan
       font-family="SimSun"
       font-size="10px"
       fill="#555555"
       fill-opacity="1"
       stroke-opacity="1"
       id="tspan291">仓库</tspan></text>
  <g
     id="Layer1003">
    <path
       d="m 174.5201,166.4696 v 20.3844 h 3.256 l 15.489,-3.8357 v -19.8955 h 32.9022 v 8.0683 l 7.458,0.0188 c 2.9506,0 5.3511,2.8644 5.3511,6.383 v 10.4375 c 0,0.5561 -0.0637,1.1198 -0.1903,1.6772 l -0.1467,0.6473 h -45.3729 v -5.9954 l -10.0717,2.4945 h 6.5637 v 6.8862 h -17.0634 v -0.005 h -0.6479 v -27.2655 z"
       style="fill:#ffffff;fill-rule:evenodd;stroke-width:0.75;stroke-linecap:round;stroke-linejoin:round"
       id="path295" />
    <path
       d="m 174.5201,166.4696 v 20.3844 h 3.256 l 15.489,-3.8357 v -19.8955 h 32.9022 v 8.0683 l 7.458,0.0188 c 2.9506,0 5.3511,2.8644 5.3511,6.383 v 10.4375 c 0,0.5561 -0.0637,1.1198 -0.1903,1.6772 l -0.1467,0.6473 h -45.3729 v -5.9954 l -10.0717,2.4945 h 6.5637 v 6.8862 h -17.0634 v -0.005 h -0.6479 v -27.2655 z"
       style="fill:none;stroke:#000000;stroke-width:0.75;stroke-linecap:round;stroke-linejoin:round;stroke-dasharray:none"
       id="path297" />
  </g>
  <path
     d="m 230.8945,181.494 h -2.8661 v -0.6373 h -1.4069 v -6.22 l 0.2881,-0.0384 c 0.1072,-0.0138 0.2164,-0.0245 0.3283,-0.0245 h 5.0589 c 1.6722,0 3.0329,1.4941 3.0329,3.3305 v 2.9524 h -4.4352 z"
     style="fill:#a5a5a5;fill-rule:evenodd;stroke-width:0.75;stroke-linecap:round;stroke-linejoin:round"
     id="path300" />
  <g
     id="Layer1004">
    <path
       d="m 213.9118,155.771 h -41.8646 v -5.6361 h 41.8652 l -4.7644,-4.5837 h 7.397 l 7.6912,7.4014 -7.6912,7.4015 h -7.397 z m -27.536,18.6002 v 8.5131 h -8.8476 v -8.5131 z m 0,-10.0928 v 8.5131 h -8.8476 v -8.5131 z"
       style="fill:#5b9bd5;fill-rule:evenodd;stroke-width:0.75;stroke-linecap:round;stroke-linejoin:round"
       id="path302" />
    <path
       d="m 213.9118,155.771 h -41.8646 v -5.6361 h 41.8652 l -4.7644,-4.5837 h 7.397 l 7.6912,7.4014 -7.6912,7.4015 h -7.397 z m -27.536,18.6002 v 8.5131 h -8.8476 v -8.5131 z m 0,-10.0928 v 8.5131 h -8.8476 v -8.5131 z"
       style="fill:none;stroke:#5b9bd5;stroke-width:0.75;stroke-linecap:round;stroke-linejoin:round;stroke-dasharray:none"
       id="path304" />
  </g>
  <g
     id="Layer1005">
    <path
       d="m 195.202,190.2964 a 3.6661,3.4425 0 0 1 3.6661,-3.4424 3.6661,3.4425 0 1 1 -3.6661,3.4424 z m 10.1051,0 a 3.6661,3.4425 0 0 1 3.6661,-3.4424 3.6661,3.4425 0 1 1 -3.6661,3.4424 z m 23.668,7e-4 a 3.6661,3.4425 0 0 1 3.6661,-3.4425 3.6661,3.4425 0 1 1 -3.6661,3.4425 z"
       style="fill:#ffffff;fill-rule:evenodd;stroke-width:0.75;stroke-linecap:round;stroke-linejoin:round"
       id="path307" />
    <path
       d="m 195.202,190.2964 a 3.6661,3.4425 0 0 1 3.6661,-3.4424 3.6661,3.4425 0 1 1 -3.6661,3.4424 z m 10.1051,0 a 3.6661,3.4425 0 0 1 3.6661,-3.4424 3.6661,3.4425 0 1 1 -3.6661,3.4424 z m 23.668,7e-4 a 3.6661,3.4425 0 0 1 3.6661,-3.4425 3.6661,3.4425 0 1 1 -3.6661,3.4425 z"
       style="fill:none;stroke:#000000;stroke-width:0.75;stroke-linecap:round;stroke-linejoin:round;stroke-dasharray:none"
       id="path309" />
  </g>
  <text
     x="194.37959"
     y="136.0233"
     id="text314"><tspan
       font-family="SimSun"
       font-size="10px"
       fill="#555555"
       fill-opacity="1"
       stroke-opacity="1"
       id="tspan312">装运</tspan></text>
  <g
     id="Layer1006">
    <path
       d="M 77.7307,193.7402 H 99.2126 V 172.4926 H 77.7307 Z M 64.8134,167.9098 h 21.482 V 146.6622 H 64.8134 Z M 51.8962,193.7402 H 73.3781 V 172.4926 H 51.8962 Z"
       style="fill:#ffc000;fill-rule:evenodd;stroke-width:0.75;stroke-linecap:round;stroke-linejoin:round"
       id="path316" />
    <path
       d="M 77.7307,193.7402 H 99.2126 V 172.4926 H 77.7307 Z M 64.8134,167.9098 h 21.482 V 146.6622 H 64.8134 Z M 51.8962,193.7402 H 73.3781 V 172.4926 H 51.8962 Z"
       style="fill:none;stroke:#ffc000;stroke-width:0.75;stroke-linecap:round;stroke-linejoin:round;stroke-dasharray:none"
       id="path318" />
  </g>
  <g
     id="Layer1007">
    <path
       d="m 31.9993,180.6861 -3.6506,-0.01 v -16.3583 a 3.8204,3.7787 0 0 1 3.9314,-3.9076 h 26.3961 v 4.2356 h -8.9859 a 3.003,2.9702 0 0 0 -3.2293,3.005 v 26.089 H 31.9896 Z m 13.4788,-29.1634 a 5.9672,5.9715 -180 0 1 -5.9672,5.9716 5.9672,5.9715 -180 1 1 5.9672,-5.9716 z"
       style="fill:#ffffff;fill-rule:evenodd;stroke-width:0.75;stroke-linecap:round;stroke-linejoin:round"
       id="path321" />
    <path
       d="m 39.5811,184.3823 v 9.3579 m -7.5818,-21.635 v 8.6503 m 0,-0.0694 -3.6506,-0.01 v -16.3583 a 3.8204,3.7787 0 0 1 3.9314,-3.9076 h 26.3961 v 4.2356 h -8.9859 a 3.003,2.9702 0 0 0 -3.2293,3.005 v 26.089 H 31.9896 Z m 13.4788,-29.1634 a 5.9672,5.9715 -180 0 1 -5.9672,5.9716 5.9672,5.9715 -180 1 1 5.9672,-5.9716 z"
       style="fill:none;stroke:#000000;stroke-width:0.75;stroke-linecap:round;stroke-linejoin:round;stroke-dasharray:none"
       id="path323" />
  </g>
  <text
     x="47.647301"
     y="204.39819"
     id="text328"><tspan
       font-family="SimSun"
       font-size="10px"
       fill="#555555"
       fill-opacity="1"
       stroke-opacity="1"
       id="tspan326">供应商</tspan></text>
  <g
     id="Layer1008">
    <path
       d="m 448.9295,166.4696 v 20.3844 h 3.2561 l 15.489,-3.8357 v -19.8955 h 32.9021 v 8.0683 l 7.4581,0.0188 c 2.9505,0 5.351,2.8644 5.351,6.383 v 10.4375 c 0,0.5561 -0.0636,1.1198 -0.1903,1.6772 l -0.1467,0.6473 h -45.3729 v -5.9954 l -10.0716,2.4945 h 6.5637 v 6.8862 h -17.0635 v -0.005 h -0.6478 v -27.2655 z"
       style="fill:#ffffff;fill-rule:evenodd;stroke-width:0.75;stroke-linecap:round;stroke-linejoin:round"
       id="path330" />
    <path
       d="m 448.9295,166.4696 v 20.3844 h 3.2561 l 15.489,-3.8357 v -19.8955 h 32.9021 v 8.0683 l 7.4581,0.0188 c 2.9505,0 5.351,2.8644 5.351,6.383 v 10.4375 c 0,0.5561 -0.0636,1.1198 -0.1903,1.6772 l -0.1467,0.6473 h -45.3729 v -5.9954 l -10.0716,2.4945 h 6.5637 v 6.8862 h -17.0635 v -0.005 h -0.6478 v -27.2655 z"
       style="fill:none;stroke:#000000;stroke-width:0.75;stroke-linecap:round;stroke-linejoin:round;stroke-dasharray:none"
       id="path332" />
  </g>
  <path
     d="m 505.304,181.494 h -2.8661 v -0.6373 h -1.407 v -6.22 l 0.2881,-0.0384 c 0.1072,-0.0138 0.2164,-0.0245 0.3283,-0.0245 h 5.0589 c 1.6723,0 3.033,1.4941 3.033,3.3305 v 2.9524 h -4.4352 z"
     style="fill:#a5a5a5;fill-rule:evenodd;stroke-width:0.75;stroke-linecap:round;stroke-linejoin:round"
     id="path335" />
  <g
     id="Layer1009">
    <path
       d="m 488.3212,155.771 h -41.8645 v -5.6361 h 41.8652 l -4.7644,-4.5837 h 7.397 l 7.6912,7.4014 -7.6912,7.4015 h -7.397 z m -27.536,18.6002 v 8.5131 h -8.8476 v -8.5131 z m 0,-10.0928 v 8.5131 h -8.8476 v -8.5131 z"
       style="fill:#5b9bd5;fill-rule:evenodd;stroke-width:0.75;stroke-linecap:round;stroke-linejoin:round"
       id="path337" />
    <path
       d="m 488.3212,155.771 h -41.8645 v -5.6361 h 41.8652 l -4.7644,-4.5837 h 7.397 l 7.6912,7.4014 -7.6912,7.4015 h -7.397 z m -27.536,18.6002 v 8.5131 h -8.8476 v -8.5131 z m 0,-10.0928 v 8.5131 h -8.8476 v -8.5131 z"
       style="fill:none;stroke:#5b9bd5;stroke-width:0.75;stroke-linecap:round;stroke-linejoin:round;stroke-dasharray:none"
       id="path339" />
  </g>
  <g
     id="Layer1010">
    <path
       d="m 469.6114,190.2964 a 3.6661,3.4425 0 0 1 3.6661,-3.4424 3.6661,3.4425 0 1 1 -3.6661,3.4424 z m 10.1052,0 a 3.6661,3.4425 0 0 1 3.666,-3.4424 3.6661,3.4425 0 1 1 -3.666,3.4424 z m 23.6679,7e-4 a 3.6661,3.4425 0 0 1 3.6661,-3.4425 3.6661,3.4425 0 1 1 -3.6661,3.4425 z"
       style="fill:#ffffff;fill-rule:evenodd;stroke-width:0.75;stroke-linecap:round;stroke-linejoin:round"
       id="path342" />
    <path
       d="m 469.6114,190.2964 a 3.6661,3.4425 0 0 1 3.6661,-3.4424 3.6661,3.4425 0 1 1 -3.6661,3.4424 z m 10.1052,0 a 3.6661,3.4425 0 0 1 3.666,-3.4424 3.6661,3.4425 0 1 1 -3.666,3.4424 z m 23.6679,7e-4 a 3.6661,3.4425 0 0 1 3.6661,-3.4425 3.6661,3.4425 0 1 1 -3.6661,3.4425 z"
       style="fill:none;stroke:#000000;stroke-width:0.75;stroke-linecap:round;stroke-linejoin:round;stroke-dasharray:none"
       id="path344" />
  </g>
  <text
     x="468.78909"
     y="136.0233"
     id="text349"><tspan
       font-family="SimSun"
       font-size="10px"
       fill="#555555"
       fill-opacity="1"
       stroke-opacity="1"
       id="tspan347">装运</tspan></text>
  <path
     d="m 499.7205,256.5556 h 29.7147 c 0.3644,0 0.659,0.3227 0.659,0.7232 v 67.4301 c 0,0.4005 -0.2946,0.7242 -0.659,0.7242 h -29.7147 c -0.3636,0 -0.6581,-0.3237 -0.6581,-0.7242 v -67.4301 c 0,-0.3996 0.2937,-0.7232 0.6581,-0.7232 z"
     style="fill:#1b5d7d;fill-opacity:0.6;fill-rule:evenodd"
     id="path351" />
  <path
     d="m 499.0624,296.8368 c -1.1132,0 -2.0151,-2.2117 -2.0151,-4.9391 0,-2.7293 0.9019,-4.9401 2.0151,-4.9401 z"
     style="fill:#1b5d7d;fill-opacity:0.6;fill-rule:evenodd"
     id="path353" />
  <path
     d="m 530.0942,319.8767 h 1.4019 v -4.8084 h -1.4019 z m 0,-52.9811 h 1.4019 v -4.8075 h -1.4019 z"
     style="fill:#1b5d7d;fill-opacity:0.6;fill-rule:evenodd"
     id="path355" />
  <path
     d="m 501.3845,258.365 v -9e-4 h 26.3867 c 0.3644,0 0.659,0.3246 0.659,0.725 v 63.7729 c 0,0.3995 -0.2946,0.7232 -0.659,0.7232 h -26.3867 c -0.3636,0 -0.6581,-0.3227 -0.6581,-0.7232 V 259.09 c 0,-0.4004 0.2937,-0.725 0.6581,-0.725 z"
     style="fill:none;stroke:#000000;stroke-width:0.375;stroke-linecap:butt;stroke-linejoin:miter;stroke-dasharray:none"
     id="path357" />
  <path
     d="m 499.7205,256.5364 v -0.001 h 29.7147 c 0.3644,0 0.659,0.3228 0.659,0.7233 v 67.4301 c 0,0.4005 -0.2946,0.7241 -0.659,0.7241 h -29.7147 c -0.3636,0 -0.6581,-0.3236 -0.6581,-0.7241 v -67.4292 c 0,-0.3996 0.2937,-0.7232 0.6581,-0.7232 z"
     style="fill:none;stroke:#000000;stroke-width:0.75;stroke-linecap:butt;stroke-linejoin:miter;stroke-dasharray:none"
     id="path359" />
  <path
     d="m 386.3346,256.5556 h 29.7148 c 0.3644,0 0.6589,0.3227 0.6589,0.7232 v 67.4301 c 0,0.4005 -0.2945,0.7242 -0.6589,0.7242 h -29.7148 c -0.3635,0 -0.6581,-0.3237 -0.6581,-0.7242 v -67.4301 c 0,-0.3996 0.2937,-0.7232 0.6581,-0.7232 z"
     style="fill:#ac0000;fill-opacity:0.6;fill-rule:evenodd"
     id="path361" />
  <path
     d="m 385.6765,296.8368 c -1.1132,0 -2.0151,-2.2117 -2.0151,-4.9391 0,-2.7293 0.9019,-4.9401 2.0151,-4.9401 z"
     style="fill:#ac0000;fill-opacity:0.6;fill-rule:evenodd"
     id="path363" />
  <path
     d="m 416.7083,319.8767 h 1.4019 v -4.8084 h -1.4019 z m 0,-52.9811 h 1.4019 v -4.8075 h -1.4019 z"
     style="fill:#ac0000;fill-opacity:0.6;fill-rule:evenodd"
     id="path365" />
  <path
     d="m 387.9986,258.365 v -9e-4 h 26.3868 c 0.3644,0 0.6589,0.3246 0.6589,0.725 v 63.7729 c 0,0.3995 -0.2945,0.7232 -0.6589,0.7232 h -26.3868 c -0.3635,0 -0.6581,-0.3227 -0.6581,-0.7232 V 259.09 c 0,-0.4004 0.2937,-0.725 0.6581,-0.725 z"
     style="fill:none;stroke:#000000;stroke-width:0.375;stroke-linecap:butt;stroke-linejoin:miter;stroke-dasharray:none"
     id="path367" />
  <path
     d="m 386.3346,256.5364 v -0.001 h 29.7148 c 0.3644,0 0.6589,0.3228 0.6589,0.7233 v 67.4301 c 0,0.4005 -0.2945,0.7241 -0.6589,0.7241 h -29.7148 c -0.3635,0 -0.6581,-0.3236 -0.6581,-0.7241 v -67.4292 c 0,-0.3996 0.2937,-0.7232 0.6581,-0.7232 z"
     style="fill:none;stroke:#000000;stroke-width:0.75;stroke-linecap:butt;stroke-linejoin:miter;stroke-dasharray:none"
     id="path369" />
  <g
     id="Layer1011">
    <path
       d="m 506.1612,276.795 v 7.6751 h 6.303 v -7.6751 a 3.169,2.3153 0 1 0 -6.303,0 z m 2.0951,-5.1166 v 2.5583 h 2.1127 v -2.5583 a 1.05635,1.05635 0 0 0 -2.1127,0 z"
       style="fill:#bd830a;fill-rule:evenodd;stroke-width:0.5;stroke-linecap:round;stroke-linejoin:round"
       id="path371" />
    <path
       d="m 506.1612,276.795 v 7.6751 h 6.303 v -7.6751 a 3.169,2.3153 0 1 0 -6.303,0 z m 2.0951,-5.1166 v 2.5583 h 2.1127 v -2.5583 a 1.05635,1.05635 0 0 0 -2.1127,0 z"
       style="fill:none;stroke:#ffffff;stroke-width:0.5;stroke-linecap:round;stroke-linejoin:round;stroke-dasharray:none"
       id="path373" />
  </g>
  <g
     id="Layer1012">
    <path
       d="m 516.7247,276.795 v 7.6751 h 6.3031 v -7.6751 a 3.169,2.3153 0 1 0 -6.3031,0 z m 2.0952,-5.1166 v 2.5583 h 2.1127 v -2.5583 a 1.05635,1.05635 0 0 0 -2.1127,0 z"
       style="fill:#bd830a;fill-rule:evenodd;stroke-width:0.5;stroke-linecap:round;stroke-linejoin:round"
       id="path376" />
    <path
       d="m 516.7247,276.795 v 7.6751 h 6.3031 v -7.6751 a 3.169,2.3153 0 1 0 -6.3031,0 z m 2.0952,-5.1166 v 2.5583 h 2.1127 v -2.5583 a 1.05635,1.05635 0 0 0 -2.1127,0 z"
       style="fill:none;stroke:#ffffff;stroke-width:0.5;stroke-linecap:round;stroke-linejoin:round;stroke-dasharray:none"
       id="path378" />
  </g>
  <g
     id="Layer1013">
    <path
       d="m 511.1201,276.795 v 7.6751 h 6.3031 v -7.6751 a 3.169,2.3153 0 1 0 -6.3031,0 z m 2.0952,-5.1166 v 2.5583 h 2.1127 v -2.5583 a 1.05635,1.05635 0 0 0 -2.1127,0 z"
       style="fill:#bd830a;fill-rule:evenodd;stroke-width:0.5;stroke-linecap:round;stroke-linejoin:round"
       id="path381" />
    <path
       d="m 511.1201,276.795 v 7.6751 h 6.3031 v -7.6751 a 3.169,2.3153 0 1 0 -6.3031,0 z m 2.0952,-5.1166 v 2.5583 h 2.1127 v -2.5583 a 1.05635,1.05635 0 0 0 -2.1127,0 z"
       style="fill:none;stroke:#ffffff;stroke-width:0.5;stroke-linecap:round;stroke-linejoin:round;stroke-dasharray:none"
       id="path383" />
  </g>
  <g
     id="Layer1014">
    <path
       d="m 506.1612,307.3412 v 7.675 h 6.303 v -7.675 a 3.169,2.3153 0 1 0 -6.303,0 z m 2.0951,-5.1167 v 2.5583 h 2.1127 v -2.5583 a 1.05635,1.05635 0 0 0 -2.1127,0 z"
       style="fill:#bd830a;fill-rule:evenodd;stroke-width:0.5;stroke-linecap:round;stroke-linejoin:round"
       id="path386" />
    <path
       d="m 506.1612,307.3412 v 7.675 h 6.303 v -7.675 a 3.169,2.3153 0 1 0 -6.303,0 z m 2.0951,-5.1167 v 2.5583 h 2.1127 v -2.5583 a 1.05635,1.05635 0 0 0 -2.1127,0 z"
       style="fill:none;stroke:#ffffff;stroke-width:0.5;stroke-linecap:round;stroke-linejoin:round;stroke-dasharray:none"
       id="path388" />
  </g>
  <g
     id="Layer1015">
    <path
       d="m 516.7247,307.3412 v 7.675 h 6.3031 v -7.675 a 3.169,2.3153 0 1 0 -6.3031,0 z m 2.0952,-5.1167 v 2.5583 h 2.1127 v -2.5583 a 1.05635,1.05635 0 0 0 -2.1127,0 z"
       style="fill:#bd830a;fill-rule:evenodd;stroke-width:0.5;stroke-linecap:round;stroke-linejoin:round"
       id="path391" />
    <path
       d="m 516.7247,307.3412 v 7.675 h 6.3031 v -7.675 a 3.169,2.3153 0 1 0 -6.3031,0 z m 2.0952,-5.1167 v 2.5583 h 2.1127 v -2.5583 a 1.05635,1.05635 0 0 0 -2.1127,0 z"
       style="fill:none;stroke:#ffffff;stroke-width:0.5;stroke-linecap:round;stroke-linejoin:round;stroke-dasharray:none"
       id="path393" />
  </g>
  <g
     id="Layer1016">
    <path
       d="m 511.1201,307.3412 v 7.675 h 6.3031 v -7.675 a 3.169,2.3153 0 1 0 -6.3031,0 z m 2.0952,-5.1167 v 2.5583 h 2.1127 v -2.5583 a 1.05635,1.05635 0 0 0 -2.1127,0 z"
       style="fill:#bd830a;fill-rule:evenodd;stroke-width:0.5;stroke-linecap:round;stroke-linejoin:round"
       id="path396" />
    <path
       d="m 511.1201,307.3412 v 7.675 h 6.3031 v -7.675 a 3.169,2.3153 0 1 0 -6.3031,0 z m 2.0952,-5.1167 v 2.5583 h 2.1127 v -2.5583 a 1.05635,1.05635 0 0 0 -2.1127,0 z"
       style="fill:none;stroke:#ffffff;stroke-width:0.5;stroke-linecap:round;stroke-linejoin:round;stroke-dasharray:none"
       id="path398" />
  </g>
  <path
     d="m 504.2354,290.8082 h 21.127"
     style="fill:none;stroke:#000000;stroke-width:0.5;stroke-linecap:round;stroke-linejoin:round;stroke-dasharray:none"
     id="path401" />
  <g
     id="Layer1017">
    <path
       d="m 392.5709,276.4722 v 7.675 h 6.303 v -7.675 a 3.169,2.3153 0 1 0 -6.303,0 z m 2.0952,-5.1167 v 2.5584 h 2.1127 v -2.5584 a 1.05635,1.05635 0 0 0 -2.1127,0 z"
       style="fill:#7030a0;fill-rule:evenodd;stroke-width:0.5;stroke-linecap:round;stroke-linejoin:round"
       id="path403" />
    <path
       d="m 392.5709,276.4722 v 7.675 h 6.303 v -7.675 a 3.169,2.3153 0 1 0 -6.303,0 z m 2.0952,-5.1167 v 2.5584 h 2.1127 v -2.5584 a 1.05635,1.05635 0 0 0 -2.1127,0 z"
       style="fill:none;stroke:#ffffff;stroke-width:0.5;stroke-linecap:round;stroke-linejoin:round;stroke-dasharray:none"
       id="path405" />
  </g>
  <g
     id="Layer1018">
    <path
       d="m 403.1344,276.4722 v 7.675 h 6.3031 v -7.675 a 3.169,2.3153 0 1 0 -6.3031,0 z m 2.0952,-5.1167 v 2.5584 h 2.1127 v -2.5584 a 1.05635,1.05635 0 0 0 -2.1127,0 z"
       style="fill:#7030a0;fill-rule:evenodd;stroke-width:0.5;stroke-linecap:round;stroke-linejoin:round"
       id="path408" />
    <path
       d="m 403.1344,276.4722 v 7.675 h 6.3031 v -7.675 a 3.169,2.3153 0 1 0 -6.3031,0 z m 2.0952,-5.1167 v 2.5584 h 2.1127 v -2.5584 a 1.05635,1.05635 0 0 0 -2.1127,0 z"
       style="fill:none;stroke:#ffffff;stroke-width:0.5;stroke-linecap:round;stroke-linejoin:round;stroke-dasharray:none"
       id="path410" />
  </g>
  <g
     id="Layer1019">
    <path
       d="m 397.5299,276.4722 v 7.675 h 6.303 v -7.675 a 3.169,2.3153 0 1 0 -6.303,0 z m 2.0951,-5.1167 v 2.5584 h 2.1127 v -2.5584 a 1.05635,1.05635 0 0 0 -2.1127,0 z"
       style="fill:#7030a0;fill-rule:evenodd;stroke-width:0.5;stroke-linecap:round;stroke-linejoin:round"
       id="path413" />
    <path
       d="m 397.5299,276.4722 v 7.675 h 6.303 v -7.675 a 3.169,2.3153 0 1 0 -6.303,0 z m 2.0951,-5.1167 v 2.5584 h 2.1127 v -2.5584 a 1.05635,1.05635 0 0 0 -2.1127,0 z"
       style="fill:none;stroke:#ffffff;stroke-width:0.5;stroke-linecap:round;stroke-linejoin:round;stroke-dasharray:none"
       id="path415" />
  </g>
  <g
     id="Layer1020">
    <path
       d="m 392.5709,307.0183 v 7.675 h 6.303 v -7.675 a 3.169,2.3153 0 1 0 -6.303,0 z m 2.0952,-5.1167 v 2.5584 h 2.1127 v -2.5584 a 1.05635,1.05635 0 0 0 -2.1127,0 z"
       style="fill:#bd830a;fill-rule:evenodd;stroke-width:0.5;stroke-linecap:round;stroke-linejoin:round"
       id="path418" />
    <path
       d="m 392.5709,307.0183 v 7.675 h 6.303 v -7.675 a 3.169,2.3153 0 1 0 -6.303,0 z m 2.0952,-5.1167 v 2.5584 h 2.1127 v -2.5584 a 1.05635,1.05635 0 0 0 -2.1127,0 z"
       style="fill:none;stroke:#ffffff;stroke-width:0.5;stroke-linecap:round;stroke-linejoin:round;stroke-dasharray:none"
       id="path420" />
  </g>
  <g
     id="Layer1021">
    <path
       d="m 403.1344,307.0183 v 7.675 h 6.3031 v -7.675 a 3.169,2.3153 0 1 0 -6.3031,0 z m 2.0952,-5.1167 v 2.5584 h 2.1127 v -2.5584 a 1.05635,1.05635 0 0 0 -2.1127,0 z"
       style="fill:#bd830a;fill-rule:evenodd;stroke-width:0.5;stroke-linecap:round;stroke-linejoin:round"
       id="path423" />
    <path
       d="m 403.1344,307.0183 v 7.675 h 6.3031 v -7.675 a 3.169,2.3153 0 1 0 -6.3031,0 z m 2.0952,-5.1167 v 2.5584 h 2.1127 v -2.5584 a 1.05635,1.05635 0 0 0 -2.1127,0 z"
       style="fill:none;stroke:#ffffff;stroke-width:0.5;stroke-linecap:round;stroke-linejoin:round;stroke-dasharray:none"
       id="path425" />
  </g>
  <g
     id="Layer1022">
    <path
       d="m 397.5299,307.0183 v 7.675 h 6.303 v -7.675 a 3.169,2.3153 0 1 0 -6.303,0 z m 2.0951,-5.1167 v 2.5584 h 2.1127 v -2.5584 a 1.05635,1.05635 0 0 0 -2.1127,0 z"
       style="fill:#bd830a;fill-rule:evenodd;stroke-width:0.5;stroke-linecap:round;stroke-linejoin:round"
       id="path428" />
    <path
       d="m 397.5299,307.0183 v 7.675 h 6.303 v -7.675 a 3.169,2.3153 0 1 0 -6.303,0 z m 2.0951,-5.1167 v 2.5584 h 2.1127 v -2.5584 a 1.05635,1.05635 0 0 0 -2.1127,0 z"
       style="fill:none;stroke:#ffffff;stroke-width:0.5;stroke-linecap:round;stroke-linejoin:round;stroke-dasharray:none"
       id="path430" />
  </g>
  <path
     d="m 390.6451,290.4853 h 21.127"
     style="fill:none;stroke:#000000;stroke-width:0.5;stroke-linecap:round;stroke-linejoin:round;stroke-dasharray:none"
     id="path433" />
  <path
     d="m 378.8676,169.6457 h 67.5798"
     style="fill:none;stroke:#000000;stroke-width:0.75;stroke-linecap:round;stroke-linejoin:round;stroke-dasharray:none"
     id="path435" />
  <path
     d="m 238.9857,169.6457 h 68.9971"
     style="fill:none;stroke:#000000;stroke-width:0.75;stroke-linecap:round;stroke-linejoin:round;stroke-dasharray:none"
     id="path437" />
  <defs
     id="defs442">
    <marker
       id="endMarker1"
       markerUnits="strokeWidth"
       orient="auto"
       markerWidth="8"
       markerHeight="6"
       viewBox="0 0 10 10"
       refX="1"
       refY="5">
      <polyline
         points="0,0 10,5 0,10 1,5"
         fill="solid"
         id="polyline439" />
    </marker>
  </defs>
  <path
     d="M 513.41554,174.35856 A 299.95587,110.03166 50.557903 0 1 343.40469,208.00891"
     style="fill:none;stroke:#000000;stroke-width:0.730882;stroke-linecap:round;stroke-linejoin:round;stroke-dasharray:none;marker-end:url(#endMarker1)"
     id="path444" />
  <path
     d="m 99.2219,169.6457 h 72.816"
     style="fill:none;stroke:#000000;stroke-width:0.75;stroke-linecap:round;stroke-linejoin:round;stroke-dasharray:none"
     id="path446" />
  <text
     x="386.32291"
     y="341.5748"
     id="text450"><tspan
       font-family="SimSun"
       font-size="10px"
       fill="#000000"
       fill-opacity="1"
       stroke-opacity="1"
       id="tspan448">售货柜1</tspan></text>
  <text
     x="499.70871"
     y="341.5748"
     id="text454"><tspan
       font-family="SimSun"
       font-size="10px"
       fill="#000000"
       fill-opacity="1"
       stroke-opacity="1"
       id="tspan452">售货柜2</tspan></text>
  <g
     id="Layer1023">
    <path
       d="m 318.0874,179.9082 h -5.863 c -0.4227,0 -0.8105,0.1399 -1.1204,0.3755 -0.2158,0.1639 -0.3938,0.3742 -0.5174,0.6148 -0.1235,0.2405 -0.1928,0.5114 -0.1929,0.7988 v 6.7952 h 1.6047 v 5.2477 h 6.2537 v -5.2477 h 1.666 v -6.7952 c 0,-0.4137 -0.1435,-0.7932 -0.3851,-1.0963 -0.1677,-0.2105 -0.3828,-0.3841 -0.6287,-0.5046 -0.246,-0.1206 -0.5229,-0.1881 -0.8169,-0.1882 z m -0.1923,-3.3636 a 2.7392,2.647 -180 1 1 -2.7392,-2.647 2.7392,2.647 -180 0 1 2.7392,2.647 z"
       style="fill:#ffffff;fill-rule:evenodd;stroke-width:0.75;stroke-linecap:round;stroke-linejoin:round"
       id="path456" />
    <path
       d="m 318.0874,179.9082 h -5.863 c -0.4227,0 -0.8105,0.1399 -1.1204,0.3755 -0.2158,0.1639 -0.3938,0.3742 -0.5174,0.6148 -0.1235,0.2405 -0.1928,0.5114 -0.1929,0.7988 v 6.7952 h 1.6047 v 5.2477 h 6.2537 v -5.2477 h 1.666 v -6.7952 c 0,-0.4137 -0.1435,-0.7932 -0.3851,-1.0963 -0.1677,-0.2105 -0.3828,-0.3841 -0.6287,-0.5046 -0.246,-0.1206 -0.5229,-0.1881 -0.8169,-0.1882 z m -2.9315,13.832 v -4.1944 m -3.1575,-1.0533 v -3.6196 m 6.2537,3.6196 v -3.6196 m -0.357,-8.3283 a 2.7392,2.647 -180 1 1 -2.7392,-2.647 2.7392,2.647 -180 0 1 2.7392,2.647 z"
       style="fill:none;stroke:#ed7d31;stroke-width:0.75;stroke-linecap:round;stroke-linejoin:round;stroke-dasharray:none"
       id="path458" />
  </g>
  <g
     id="Layer1024">
    <path
       d="m 495.7267,174.672 h -5.8629 c -0.4227,0 -0.8106,0.1399 -1.1205,0.3755 -0.2158,0.1639 -0.3937,0.3742 -0.5173,0.6148 -0.1236,0.2405 -0.1928,0.5114 -0.193,0.7988 v 6.7952 h 1.6047 v 5.2477 h 6.2537 v -5.2477 h 1.666 v -6.7952 c 0,-0.4137 -0.1435,-0.7932 -0.3851,-1.0963 -0.1677,-0.2105 -0.3827,-0.3841 -0.6287,-0.5046 -0.246,-0.1206 -0.5229,-0.1881 -0.8169,-0.1882 z m -0.1922,-3.3636 a 2.7392,2.647 -180 1 1 -2.7393,-2.647 2.7392,2.647 -180 0 1 2.7393,2.647 z"
       style="fill:#ffffff;fill-rule:evenodd;stroke-width:0.75;stroke-linecap:round;stroke-linejoin:round"
       id="path461" />
    <path
       d="m 495.7267,174.672 h -5.8629 c -0.4227,0 -0.8106,0.1399 -1.1205,0.3755 -0.2158,0.1639 -0.3937,0.3742 -0.5173,0.6148 -0.1236,0.2405 -0.1928,0.5114 -0.193,0.7988 v 6.7952 h 1.6047 v 5.2477 h 6.2537 v -5.2477 h 1.666 v -6.7952 c 0,-0.4137 -0.1435,-0.7932 -0.3851,-1.0963 -0.1677,-0.2105 -0.3827,-0.3841 -0.6287,-0.5046 -0.246,-0.1206 -0.5229,-0.1881 -0.8169,-0.1882 z m -2.9315,13.832 v -4.1944 m -3.1575,-1.0533 v -3.6196 m 6.2537,3.6196 v -3.6196 m -0.3569,-8.3283 a 2.7392,2.647 -180 1 1 -2.7393,-2.647 2.7392,2.647 -180 0 1 2.7393,2.647 z"
       style="fill:none;stroke:#0185f1;stroke-width:0.75;stroke-linecap:round;stroke-linejoin:round;stroke-dasharray:none"
       id="path463" />
  </g>
  <g
     id="Layer1025">
    <path
       d="m 449.3882,316.4043 h -5.863 c -0.4227,0 -0.8105,0.1399 -1.1204,0.3754 -0.2158,0.164 -0.3938,0.3743 -0.5174,0.6148 -0.1236,0.2406 -0.1928,0.5114 -0.1929,0.7989 v 6.7951 h 1.6047 v 5.2477 h 6.2537 v -5.2477 h 1.666 v -6.7951 c 0,-0.4137 -0.1435,-0.7933 -0.3851,-1.0963 -0.1677,-0.2105 -0.3828,-0.3841 -0.6287,-0.5047 -0.246,-0.1205 -0.5229,-0.188 -0.8169,-0.1881 z m -0.1923,-3.3636 a 2.7392,2.647 -180 1 1 -2.7392,-2.647 2.7392,2.647 -180 0 1 2.7392,2.647 z"
       style="fill:#ffffff;fill-rule:evenodd;stroke-width:0.75;stroke-linecap:round;stroke-linejoin:round"
       id="path466" />
    <path
       d="m 449.3882,316.4043 h -5.863 c -0.4227,0 -0.8105,0.1399 -1.1204,0.3754 -0.2158,0.164 -0.3938,0.3743 -0.5174,0.6148 -0.1236,0.2406 -0.1928,0.5114 -0.1929,0.7989 v 6.7951 h 1.6047 v 5.2477 h 6.2537 v -5.2477 h 1.666 v -6.7951 c 0,-0.4137 -0.1435,-0.7933 -0.3851,-1.0963 -0.1677,-0.2105 -0.3828,-0.3841 -0.6287,-0.5047 -0.246,-0.1205 -0.5229,-0.188 -0.8169,-0.1881 z m -2.9315,13.8319 v -4.1943 m -3.1575,-1.0534 v -3.6195 m 6.2537,3.6195 v -3.6195 m -0.357,-8.3283 a 2.7392,2.647 -180 1 1 -2.7392,-2.647 2.7392,2.647 -180 0 1 2.7392,2.647 z"
       style="fill:none;stroke:#a5a5a5;stroke-width:0.75;stroke-linecap:round;stroke-linejoin:round;stroke-dasharray:none"
       id="path468" />
  </g>
  <g
     id="Layer1026">
    <path
       d="m 458.7992,320.6562 h -5.863 c -0.4227,0 -0.8105,0.14 -1.1204,0.3755 -0.2158,0.164 -0.3938,0.3743 -0.5174,0.6148 -0.1235,0.2406 -0.1928,0.5114 -0.1929,0.7989 v 6.7951 h 1.6047 v 5.2477 h 6.2537 v -5.2477 h 1.666 v -6.7951 c 0,-0.4138 -0.1435,-0.7933 -0.3851,-1.0963 -0.1677,-0.2105 -0.3828,-0.3841 -0.6287,-0.5047 -0.246,-0.1205 -0.5229,-0.188 -0.8169,-0.1882 z m -0.1923,-3.3635 a 2.7392,2.647 -180 1 1 -2.7392,-2.647 2.7392,2.647 -180 0 1 2.7392,2.647 z"
       style="fill:#ffffff;fill-rule:evenodd;stroke-width:0.75;stroke-linecap:round;stroke-linejoin:round"
       id="path471" />
    <path
       d="m 458.7992,320.6562 h -5.863 c -0.4227,0 -0.8105,0.14 -1.1204,0.3755 -0.2158,0.164 -0.3938,0.3743 -0.5174,0.6148 -0.1235,0.2406 -0.1928,0.5114 -0.1929,0.7989 v 6.7951 h 1.6047 v 5.2477 h 6.2537 v -5.2477 h 1.666 v -6.7951 c 0,-0.4138 -0.1435,-0.7933 -0.3851,-1.0963 -0.1677,-0.2105 -0.3828,-0.3841 -0.6287,-0.5047 -0.246,-0.1205 -0.5229,-0.188 -0.8169,-0.1882 z m -2.9315,13.832 v -4.1944 m -3.1575,-1.0533 v -3.6196 m 6.2537,3.6196 v -3.6196 m -0.357,-8.3282 a 2.7392,2.647 -180 1 1 -2.7392,-2.647 2.7392,2.647 -180 0 1 2.7392,2.647 z"
       style="fill:none;stroke:#a5a5a5;stroke-width:0.75;stroke-linecap:round;stroke-linejoin:round;stroke-dasharray:none"
       id="path473" />
  </g>
  <g
     id="Layer1027">
    <path
       d="m 468.3236,316.4043 h -5.8629 c -0.4227,0 -0.8106,0.1399 -1.1205,0.3754 -0.2158,0.164 -0.3937,0.3743 -0.5173,0.6148 -0.1236,0.2406 -0.1928,0.5114 -0.193,0.7989 v 6.7951 h 1.6047 v 5.2477 h 6.2537 v -5.2477 h 1.666 v -6.7951 c 0,-0.4137 -0.1435,-0.7933 -0.3851,-1.0963 -0.1677,-0.2105 -0.3827,-0.3841 -0.6287,-0.5047 -0.246,-0.1205 -0.5229,-0.188 -0.8169,-0.1881 z m -0.1923,-3.3636 a 2.7392,2.647 -180 1 1 -2.7392,-2.647 2.7392,2.647 -180 0 1 2.7392,2.647 z"
       style="fill:#ffffff;fill-rule:evenodd;stroke-width:0.75;stroke-linecap:round;stroke-linejoin:round"
       id="path476" />
    <path
       d="m 468.3236,316.4043 h -5.8629 c -0.4227,0 -0.8106,0.1399 -1.1205,0.3754 -0.2158,0.164 -0.3937,0.3743 -0.5173,0.6148 -0.1236,0.2406 -0.1928,0.5114 -0.193,0.7989 v 6.7951 h 1.6047 v 5.2477 h 6.2537 v -5.2477 h 1.666 v -6.7951 c 0,-0.4137 -0.1435,-0.7933 -0.3851,-1.0963 -0.1677,-0.2105 -0.3827,-0.3841 -0.6287,-0.5047 -0.246,-0.1205 -0.5229,-0.188 -0.8169,-0.1881 z m -2.9315,13.8319 v -4.1943 m -3.1575,-1.0534 v -3.6195 m 6.2537,3.6195 v -3.6195 m -0.357,-8.3283 a 2.7392,2.647 -180 1 1 -2.7392,-2.647 2.7392,2.647 -180 0 1 2.7392,2.647 z"
       style="fill:none;stroke:#a5a5a5;stroke-width:0.75;stroke-linecap:round;stroke-linejoin:round;stroke-dasharray:none"
       id="path478" />
  </g>
  <g
     id="Layer1028">
    <path
       d="m 378.522,307.0594 h -5.8629 c -0.4227,0 -0.8106,0.14 -1.1205,0.3755 -0.2157,0.1639 -0.3937,0.3742 -0.5173,0.6148 -0.1236,0.2405 -0.1928,0.5114 -0.1929,0.7988 v 6.7952 h 1.6046 v 5.2477 h 6.2537 v -5.2477 h 1.6661 v -6.7952 c 0,-0.4137 -0.1436,-0.7932 -0.3851,-1.0963 -0.1678,-0.2105 -0.3828,-0.3841 -0.6288,-0.5046 -0.246,-0.1206 -0.5229,-0.1881 -0.8169,-0.1882 z m -0.1922,-3.3636 a 2.7392,2.647 -180 1 1 -2.7392,-2.6469 2.7392,2.647 -180 0 1 2.7392,2.6469 z"
       style="fill:#ffffff;fill-rule:evenodd;stroke-width:0.75;stroke-linecap:round;stroke-linejoin:round"
       id="path481" />
    <path
       d="m 378.522,307.0594 h -5.8629 c -0.4227,0 -0.8106,0.14 -1.1205,0.3755 -0.2157,0.1639 -0.3937,0.3742 -0.5173,0.6148 -0.1236,0.2405 -0.1928,0.5114 -0.1929,0.7988 v 6.7952 h 1.6046 v 5.2477 h 6.2537 v -5.2477 h 1.6661 v -6.7952 c 0,-0.4137 -0.1436,-0.7932 -0.3851,-1.0963 -0.1678,-0.2105 -0.3828,-0.3841 -0.6288,-0.5046 -0.246,-0.1206 -0.5229,-0.1881 -0.8169,-0.1882 z m -2.9314,13.832 v -4.1944 m -3.1576,-1.0533 v -3.6196 m 6.2537,3.6196 v -3.6196 m -0.3569,-8.3283 a 2.7392,2.647 -180 1 1 -2.7392,-2.6469 2.7392,2.647 -180 0 1 2.7392,2.6469 z"
       style="fill:none;stroke:#a5a5a5;stroke-width:0.75;stroke-linecap:round;stroke-linejoin:round;stroke-dasharray:none"
       id="path483" />
  </g>
  <g
     id="Layer1029">
    <path
       d="m 491.9079,307.3822 h -5.863 c -0.4227,0 -0.8105,0.14 -1.1204,0.3755 -0.2158,0.164 -0.3938,0.3743 -0.5174,0.6148 -0.1236,0.2406 -0.1928,0.5114 -0.1929,0.7989 v 6.7951 h 1.6046 v 5.2477 h 6.2538 v -5.2477 h 1.666 v -6.7951 c 0,-0.4137 -0.1436,-0.7933 -0.3851,-1.0963 -0.1678,-0.2105 -0.3828,-0.3841 -0.6288,-0.5047 -0.2459,-0.1205 -0.5228,-0.188 -0.8168,-0.1882 z m -0.1923,-3.3635 a 2.7392,2.647 -180 1 1 -2.7392,-2.647 2.7392,2.647 -180 0 1 2.7392,2.647 z"
       style="fill:#ffffff;fill-rule:evenodd;stroke-width:0.75;stroke-linecap:round;stroke-linejoin:round"
       id="path486" />
    <path
       d="m 491.9079,307.3822 h -5.863 c -0.4227,0 -0.8105,0.14 -1.1204,0.3755 -0.2158,0.164 -0.3938,0.3743 -0.5174,0.6148 -0.1236,0.2406 -0.1928,0.5114 -0.1929,0.7989 v 6.7951 h 1.6046 v 5.2477 h 6.2538 v -5.2477 h 1.666 v -6.7951 c 0,-0.4137 -0.1436,-0.7933 -0.3851,-1.0963 -0.1678,-0.2105 -0.3828,-0.3841 -0.6288,-0.5047 -0.2459,-0.1205 -0.5228,-0.188 -0.8168,-0.1882 z m -2.9315,13.832 v -4.1944 m -3.1576,-1.0533 v -3.6196 m 6.2538,3.6196 v -3.6196 m -0.357,-8.3282 a 2.7392,2.647 -180 1 1 -2.7392,-2.647 2.7392,2.647 -180 0 1 2.7392,2.647 z"
       style="fill:none;stroke:#a5a5a5;stroke-width:0.75;stroke-linecap:round;stroke-linejoin:round;stroke-dasharray:none"
       id="path488" />
  </g>
  <g
     id="Layer1030">
    <path
       d="m 40.1992,330.4988 h -5.863 c -0.4227,0 -0.8105,0.1399 -1.1204,0.3754 -0.2158,0.164 -0.3938,0.3743 -0.5174,0.6148 -0.1236,0.2406 -0.1928,0.5114 -0.1929,0.7989 v 6.7951 h 1.6047 v 5.2477 h 6.2537 v -5.2477 h 1.666 v -6.7951 c 0,-0.4137 -0.1435,-0.7933 -0.3851,-1.0963 -0.1677,-0.2105 -0.3828,-0.3841 -0.6287,-0.5047 -0.246,-0.1205 -0.5229,-0.188 -0.8169,-0.1881 z m -0.1923,-3.3636 a 2.7392,2.647 -180 1 1 -2.7392,-2.647 2.7392,2.647 -180 0 1 2.7392,2.647 z"
       style="fill:#ffffff;fill-rule:evenodd;stroke-width:0.75;stroke-linecap:round;stroke-linejoin:round"
       id="path491" />
    <path
       d="m 40.1992,330.4988 h -5.863 c -0.4227,0 -0.8105,0.1399 -1.1204,0.3754 -0.2158,0.164 -0.3938,0.3743 -0.5174,0.6148 -0.1236,0.2406 -0.1928,0.5114 -0.1929,0.7989 v 6.7951 h 1.6047 v 5.2477 h 6.2537 v -5.2477 h 1.666 v -6.7951 c 0,-0.4137 -0.1435,-0.7933 -0.3851,-1.0963 -0.1677,-0.2105 -0.3828,-0.3841 -0.6287,-0.5047 -0.246,-0.1205 -0.5229,-0.188 -0.8169,-0.1881 z m -2.9315,13.8319 v -4.1944 m -3.1575,-1.0533 v -3.6195 m 6.2537,3.6195 v -3.6195 m -0.357,-8.3283 a 2.7392,2.647 -180 1 1 -2.7392,-2.647 2.7392,2.647 -180 0 1 2.7392,2.647 z"
       style="fill:none;stroke:#ed7d31;stroke-width:0.75;stroke-linecap:round;stroke-linejoin:round;stroke-dasharray:none"
       id="path493" />
  </g>
  <g
     id="Layer1031">
    <path
       d="m 125.2385,330.4988 h -5.8629 c -0.4227,0 -0.8106,0.1399 -1.1205,0.3754 -0.2157,0.164 -0.3937,0.3743 -0.5173,0.6149 -0.1236,0.2405 -0.1928,0.5113 -0.1929,0.7988 v 6.7951 h 1.6046 v 5.2477 h 6.2538 v -5.2477 h 1.666 v -6.7951 c 0,-0.4137 -0.1436,-0.7932 -0.3851,-1.0963 -0.1678,-0.2105 -0.3828,-0.3841 -0.6288,-0.5046 -0.246,-0.1206 -0.5229,-0.1881 -0.8169,-0.1882 z m -0.1922,-3.3636 a 2.7392,2.647 -180 1 1 -2.7392,-2.647 2.7392,2.647 -180 0 1 2.7392,2.647 z"
       style="fill:#ffffff;fill-rule:evenodd;stroke-width:0.75;stroke-linecap:round;stroke-linejoin:round"
       id="path496" />
    <path
       d="m 125.2385,330.4988 h -5.8629 c -0.4227,0 -0.8106,0.1399 -1.1205,0.3754 -0.2157,0.164 -0.3937,0.3743 -0.5173,0.6149 -0.1236,0.2405 -0.1928,0.5113 -0.1929,0.7988 v 6.7951 h 1.6046 v 5.2477 h 6.2538 v -5.2477 h 1.666 v -6.7951 c 0,-0.4137 -0.1436,-0.7932 -0.3851,-1.0963 -0.1678,-0.2105 -0.3828,-0.3841 -0.6288,-0.5046 -0.246,-0.1206 -0.5229,-0.1881 -0.8169,-0.1882 z m -2.9314,13.8319 v -4.1943 m -3.1576,-1.0534 v -3.6195 m 6.2538,3.6195 v -3.6195 m -0.357,-8.3283 a 2.7392,2.647 -180 1 1 -2.7392,-2.647 2.7392,2.647 -180 0 1 2.7392,2.647 z"
       style="fill:none;stroke:#0185f1;stroke-width:0.75;stroke-linecap:round;stroke-linejoin:round;stroke-dasharray:none"
       id="path498" />
  </g>
  <g
     id="Layer1032">
    <path
       d="m 229.3315,330.4988 h -5.863 c -0.4227,0 -0.8105,0.1399 -1.1204,0.3754 -0.2158,0.164 -0.3938,0.3743 -0.5174,0.6149 -0.1236,0.2405 -0.1928,0.5113 -0.1929,0.7988 v 6.7951 h 1.6047 v 5.2477 h 6.2537 v -5.2477 h 1.666 v -6.7951 c 0,-0.4137 -0.1435,-0.7932 -0.3851,-1.0963 -0.1678,-0.2105 -0.3828,-0.3841 -0.6288,-0.5046 -0.2459,-0.1206 -0.5228,-0.1881 -0.8168,-0.1882 z m -0.1923,-3.3636 a 2.7392,2.647 -180 1 1 -2.7392,-2.647 2.7392,2.647 -180 0 1 2.7392,2.647 z"
       style="fill:#ffffff;fill-rule:evenodd;stroke-width:0.75;stroke-linecap:round;stroke-linejoin:round"
       id="path501" />
    <path
       d="m 229.3315,330.4988 h -5.863 c -0.4227,0 -0.8105,0.1399 -1.1204,0.3754 -0.2158,0.164 -0.3938,0.3743 -0.5174,0.6149 -0.1236,0.2405 -0.1928,0.5113 -0.1929,0.7988 v 6.7951 h 1.6047 v 5.2477 h 6.2537 v -5.2477 h 1.666 v -6.7951 c 0,-0.4137 -0.1435,-0.7932 -0.3851,-1.0963 -0.1678,-0.2105 -0.3828,-0.3841 -0.6288,-0.5046 -0.2459,-0.1206 -0.5228,-0.1881 -0.8168,-0.1882 z M 226.4,344.3307 v -4.1943 m -3.1575,-1.0534 v -3.6195 m 6.2537,3.6195 v -3.6195 m -0.357,-8.3283 a 2.7392,2.647 -180 1 1 -2.7392,-2.647 2.7392,2.647 -180 0 1 2.7392,2.647 z"
       style="fill:none;stroke:#a5a5a5;stroke-width:0.75;stroke-linecap:round;stroke-linejoin:round;stroke-dasharray:none"
       id="path503" />
  </g>
  <text
     x="43.2677"
     y="340.48819"
     id="text508"><tspan
       font-family="SimSun"
       font-size="12px"
       fill="#000000"
       fill-opacity="1"
       stroke-opacity="1"
       id="tspan506">库管员</tspan></text>
  <text
     x="128.3071"
     y="340.48819"
     id="text512"><tspan
       font-family="SimSun"
       font-size="12px"
       fill="#000000"
       fill-opacity="1"
       stroke-opacity="1"
       id="tspan510">送货/理货员</tspan></text>
  <text
     x="233.6378"
     y="340.48819"
     id="text516"><tspan
       font-family="SimSun"
       font-size="12px"
       fill="#000000"
       fill-opacity="1"
       stroke-opacity="1"
       id="tspan514">客户</tspan></text>
  <text
     x="209.0157"
     y="60.944901"
     id="text520"><tspan
       font-family="FangSong"
       font-weight="bold"
       font-size="18px"
       fill="#000000"
       fill-opacity="1"
       stroke-opacity="1"
       id="tspan518">自动售货机场景说明</tspan></text>
  <text
     x="500.06299"
     y="409.52759"
     id="text524"><tspan
       font-family="'Ink Free'"
       font-style="italic"
       font-size="9px"
       fill="#a5a5a5"
       fill-opacity="1"
       stroke-opacity="1"
       id="tspan522">SandFlower-Rovem</tspan></text>
  <text
     x="12.5039"
     y="408.189"
     id="text528"><tspan
       font-family="FangSong"
       font-style="italic"
       font-size="8px"
       fill="#a5a5a5"
       fill-opacity="1"
       stroke-opacity="1"
       id="tspan526">花石录-自动售货机</tspan></text>
</svg>
